<svg width="201" height="203" viewBox="0 0 201 203" fill="none" xmlns="http://www.w3.org/2000/svg">
<path d="M0 10C0 4.47715 4.47715 0 10 0H98V98H0V10Z" fill="#D8E2DC"/>
<path d="M103 105H201V193C201 198.523 196.523 203 191 203H103V105Z" fill="#FEC5BB"/>
<path d="M0 105H98V203H10C4.47715 203 0 198.523 0 193V105Z" fill="#FFD7BA"/>
<path d="M103 0H191C196.523 0 201 4.47715 201 10V98H103V0Z" fill="#FFD7BA"/>
<path d="M73.75 28.5V57.825C73.75 71.775 66.375 78.75 51.625 78.75C44.375 78.75 38.875 77.025 35.125 73.575C31.375 70.075 29.5 64.825 29.5 57.825V28.5H42.475V58.05C42.475 65.1 45.525 68.625 51.625 68.625C57.775 68.625 60.85 65.1 60.85 58.05V28.5H73.75Z" fill="white"/>
<path d="M51.475 131.5C59.225 131.5 65.15 133.65 69.25 137.95C73.4 142.25 75.475 148.35 75.475 156.25C75.475 164.15 73.4 170.25 69.25 174.55C65.15 178.85 59.225 181 51.475 181H30.475V131.5H51.475ZM50.2 171.25C54.4 171.25 57.45 170 59.35 167.5C61.3 164.95 62.275 161.2 62.275 156.25C62.275 151.3 61.3 147.575 59.35 145.075C57.45 142.525 54.4 141.25 50.2 141.25H43.375V171.25H50.2Z" fill="white"/>
<path d="M175.1 28.5V38.475H158.975V78H146.075V38.475H129.875V28.5H175.1Z" fill="white"/>
<path d="M135.697 128.118C135.214 128.258 134.537 128.978 134.397 129.472C134.333 129.697 134.279 130.417 134.279 131.072V132.275L132.217 132.318C130.358 132.361 130.047 132.404 129.177 132.662C126.427 133.489 124.214 135.681 123.354 138.474L123.054 139.44V157.648V175.856L123.354 176.823C124.214 179.605 126.395 181.786 129.177 182.646L130.144 182.946H139.446H148.738L149.179 182.656C149.845 182.216 150.124 181.689 150.124 180.852C150.124 180.014 149.845 179.487 149.179 179.047L148.738 178.757L139.715 178.703L130.681 178.649L130.058 178.402C128.865 177.919 127.963 176.974 127.544 175.76C127.361 175.244 127.351 174.277 127.351 157.648C127.351 141.02 127.361 140.053 127.544 139.537C127.963 138.323 128.876 137.367 130.058 136.905C130.595 136.701 130.938 136.658 132.464 136.615L134.258 136.572L134.29 138.012C134.333 139.29 134.354 139.483 134.591 139.849C134.73 140.074 135.042 140.386 135.278 140.547C135.644 140.794 135.837 140.837 136.428 140.837C137.019 140.837 137.212 140.794 137.577 140.547C137.813 140.386 138.125 140.074 138.265 139.849C138.501 139.483 138.522 139.29 138.555 138.012L138.598 136.594H143.41H148.223L148.266 138.022C148.298 139.365 148.319 139.483 148.588 139.892C149.028 140.568 149.555 140.837 150.403 140.837C150.983 140.837 151.177 140.783 151.542 140.547C151.778 140.386 152.09 140.074 152.229 139.849C152.466 139.483 152.487 139.29 152.52 138.012L152.562 136.594H157.429H162.295L162.338 138.022C162.37 139.365 162.392 139.483 162.66 139.892C163.101 140.568 163.627 140.837 164.476 140.837C165.056 140.837 165.249 140.783 165.614 140.547C165.851 140.386 166.162 140.074 166.302 139.849C166.538 139.483 166.56 139.29 166.603 138.012L166.635 136.572L168.482 136.615C170.04 136.658 170.405 136.69 170.899 136.895C172.092 137.367 172.93 138.194 173.402 139.354L173.649 139.978L173.703 146.906L173.757 153.835L174.015 154.243C174.154 154.469 174.466 154.78 174.702 154.941C175.067 155.178 175.261 155.231 175.841 155.231C176.689 155.231 177.216 154.963 177.656 154.286L177.946 153.846V146.648V139.44L177.646 138.474C176.786 135.691 174.573 133.489 171.823 132.662C170.953 132.404 170.642 132.361 168.74 132.318L166.635 132.275L166.592 130.857C166.56 129.525 166.538 129.407 166.27 128.999C165.829 128.333 165.303 128.054 164.465 128.054C163.627 128.054 163.101 128.333 162.66 128.999C162.392 129.407 162.37 129.525 162.338 130.868L162.295 132.297H157.429H152.562L152.52 130.868C152.487 129.601 152.466 129.407 152.229 129.042C152.09 128.816 151.778 128.505 151.542 128.344C151.177 128.107 150.983 128.054 150.403 128.054C149.555 128.054 149.028 128.322 148.588 128.999C148.319 129.407 148.298 129.525 148.266 130.868L148.223 132.297H143.41H138.598L138.555 130.868C138.522 129.525 138.501 129.407 138.232 128.999C138.071 128.763 137.771 128.462 137.566 128.333C137.126 128.054 136.224 127.957 135.697 128.118Z" fill="white"/>
<path d="M135.697 148.528C135.181 148.679 134.526 149.388 134.376 149.936C134.129 150.892 134.505 151.891 135.321 152.396C135.933 152.782 136.975 152.761 137.577 152.363C138.243 151.923 138.522 151.397 138.522 150.559C138.522 149.731 138.243 149.194 137.609 148.775C137.147 148.464 136.266 148.356 135.697 148.528Z" fill="white"/>
<path d="M145.043 148.528C144.527 148.679 143.872 149.388 143.721 149.936C143.474 150.892 143.85 151.891 144.667 152.396C145.279 152.782 146.321 152.761 146.923 152.363C147.589 151.923 147.868 151.397 147.868 150.559C147.868 149.731 147.589 149.194 146.955 148.775C146.493 148.464 145.612 148.356 145.043 148.528Z" fill="white"/>
<path d="M154.388 148.528C153.873 148.679 153.218 149.388 153.067 149.936C152.82 150.892 153.196 151.891 154.012 152.396C154.625 152.782 155.667 152.761 156.268 152.363C156.934 151.923 157.214 151.397 157.214 150.559C157.214 149.731 156.934 149.194 156.301 148.775C155.839 148.464 154.958 148.356 154.388 148.528Z" fill="white"/>
<path d="M163.734 148.528C163.219 148.679 162.563 149.388 162.413 149.936C162.166 150.892 162.542 151.891 163.358 152.396C163.97 152.782 165.012 152.761 165.614 152.363C166.28 151.923 166.559 151.397 166.559 150.559C166.559 149.731 166.28 149.194 165.646 148.775C165.184 148.464 164.303 148.356 163.734 148.528Z" fill="white"/>
<path d="M163.122 157.165C160.286 157.605 157.697 158.927 155.742 160.936C154.711 161.978 154.002 162.998 153.336 164.362C151.574 167.982 151.574 172.021 153.336 175.642C154.657 178.338 156.677 180.357 159.352 181.657C162.993 183.43 167.011 183.43 170.652 181.657C173.327 180.357 175.347 178.338 176.668 175.642C178.43 172.021 178.43 167.982 176.668 164.362C175.347 161.666 173.327 159.646 170.652 158.347C168.268 157.187 165.614 156.768 163.122 157.165ZM166.527 161.451C170.717 162.278 173.703 165.823 173.703 170.002C173.703 174.181 170.717 177.726 166.527 178.553C163.552 179.133 160.243 177.919 158.31 175.534C155.646 172.247 155.646 167.757 158.31 164.47C160.243 162.096 163.552 160.871 166.527 161.451Z" fill="white"/>
<path d="M164.271 163.567C163.766 163.718 163.1 164.427 162.961 164.953C162.885 165.243 162.853 166.339 162.875 168.058L162.907 170.722L163.197 171.151C163.358 171.388 163.67 171.699 163.895 171.839C164.293 172.086 164.368 172.097 166.559 172.097C168.751 172.097 168.826 172.086 169.223 171.839C169.449 171.699 169.76 171.388 169.922 171.151C170.319 170.55 170.341 169.508 169.954 168.896C169.535 168.219 168.998 167.929 168.009 167.875L167.172 167.832L167.129 166.36C167.096 165.05 167.075 164.856 166.839 164.491C166.334 163.675 165.217 163.277 164.271 163.567Z" fill="white"/>
<path d="M135.697 157.874C135.181 158.024 134.526 158.733 134.376 159.281C134.129 160.237 134.505 161.236 135.321 161.741C135.933 162.128 136.975 162.106 137.577 161.709C138.243 161.269 138.522 160.742 138.522 159.904C138.522 159.077 138.243 158.54 137.609 158.121C137.147 157.81 136.266 157.702 135.697 157.874Z" fill="white"/>
<path d="M145.043 157.874C144.527 158.024 143.872 158.733 143.721 159.281C143.474 160.237 143.85 161.236 144.667 161.741C145.279 162.128 146.321 162.106 146.923 161.709C147.589 161.269 147.868 160.742 147.868 159.904C147.868 159.077 147.589 158.54 146.955 158.121C146.493 157.81 145.612 157.702 145.043 157.874Z" fill="white"/>
<path d="M135.697 167.22C135.181 167.37 134.526 168.079 134.376 168.627C134.129 169.583 134.505 170.582 135.321 171.087C135.933 171.474 136.975 171.452 137.577 171.055C138.243 170.614 138.522 170.088 138.522 169.25C138.522 168.423 138.243 167.886 137.609 167.467C137.147 167.155 136.266 167.048 135.697 167.22Z" fill="white"/>
<path d="M145.043 167.22C144.527 167.37 143.872 168.079 143.721 168.627C143.474 169.583 143.85 170.582 144.667 171.087C145.279 171.474 146.321 171.452 146.923 171.055C147.589 170.614 147.868 170.088 147.868 169.25C147.868 168.423 147.589 167.886 146.955 167.467C146.493 167.155 145.612 167.048 145.043 167.22Z" fill="white"/>
</svg>
